<?xml version="1.0" encoding="UTF-8" standalone="no"?>
<!-- Created with Inkscape (http://www.inkscape.org/) -->

<svg
   xmlns:dc="http://purl.org/dc/elements/1.1/"
   xmlns:cc="http://creativecommons.org/ns#"
   xmlns:rdf="http://www.w3.org/1999/02/22-rdf-syntax-ns#"
   xmlns:svg="http://www.w3.org/2000/svg"
   xmlns="http://www.w3.org/2000/svg"
   xmlns:sodipodi="http://sodipodi.sourceforge.net/DTD/sodipodi-0.dtd"
   xmlns:inkscape="http://www.inkscape.org/namespaces/inkscape"
   width="334.53171"
   height="409.96875"
   id="svg2"
   version="1.1"
   inkscape:version="0.48.4 r9939"
   sodipodi:docname="cycles.svg">
  <defs
     id="defs4">
    <inkscape:perspective
       sodipodi:type="inkscape:persp3d"
       inkscape:vp_x="0 : 526.18109 : 1"
       inkscape:vp_y="0 : 1000 : 0"
       inkscape:vp_z="744.09448 : 526.18109 : 1"
       inkscape:persp3d-origin="372.04724 : 350.78739 : 1"
       id="perspective4705" />
    <marker
       inkscape:stockid="Arrow2Lend"
       orient="auto"
       refY="0"
       refX="0"
       id="Arrow2Lend"
       style="overflow:visible">
      <path
         id="path3960"
         style="fill-rule:evenodd;stroke-width:0.625;stroke-linejoin:round"
         d="M 8.7185878,4.0337352 -2.2072895,0.01601326 8.7185884,-4.0017078 c -1.7454984,2.3720609 -1.7354408,5.6174519 -6e-7,8.035443 z"
         transform="matrix(-1.1,0,0,-1.1,-1.1,0)"
         inkscape:connector-curvature="0" />
    </marker>
  </defs>
  <sodipodi:namedview
     id="base"
     pagecolor="#ffffff"
     bordercolor="#666666"
     borderopacity="1.0"
     inkscape:pageopacity="0.0"
     inkscape:pageshadow="2"
     inkscape:zoom="1"
     inkscape:cx="-2.1919157"
     inkscape:cy="307.76392"
     inkscape:document-units="px"
     inkscape:current-layer="g4799"
     showgrid="false"
     inkscape:snap-bbox="true"
     inkscape:window-width="1680"
     inkscape:window-height="1026"
     inkscape:window-x="0"
     inkscape:window-y="24"
     inkscape:window-maximized="1"
     fit-margin-top="0"
     fit-margin-left="0"
     fit-margin-right="0"
     fit-margin-bottom="0" />
  <metadata
     id="metadata7">
    <rdf:RDF>
      <cc:Work
         rdf:about="">
        <dc:format>image/svg+xml</dc:format>
        <dc:type
           rdf:resource="http://purl.org/dc/dcmitype/StillImage" />
        <dc:title />
      </cc:Work>
    </rdf:RDF>
  </metadata>
  <g
     inkscape:label="Layer 1"
     inkscape:groupmode="layer"
     id="layer1"
     style="display:inline"
     transform="translate(-101.43728,-349.71875)">
    <g
       id="g4795">
      <g
         id="g4799">
        <g
           id="g4803"
           style="stroke:#000000;stroke-opacity:1;stroke-width:2;stroke-miterlimit:4;stroke-dasharray:none;fill:#b69090;fill-opacity:1;opacity:0.80000000000000004">
          <path
             sodipodi:nodetypes="sccscccccs"
             inkscape:connector-curvature="0"
             id="path4780"
             d="m 394.37054,553.76152 c -0.0482,29.90109 -10.53078,56.88279 -29.70074,80.11465 l 34.44737,27.44908 c 23.58535,-30.29881 36.41316,-65.53341 36.47406,-103.87099 0.1519,-95.67833 -77.60416,-173.36358 -173.83273,-173.69083 0,0 -1.11114,-0.15297 -1.23943,-33.68607 0,0 -0.12829,-0.20931 -72.70794,53.0273 72.57964,53.23661 72.70792,53.0273 72.70792,53.0273 0.1283,-33.53308 0.99018,-33.42418 0.99018,-33.42418 73.45345,0.2001 132.97759,58.83639 132.86131,131.05374 z"
             style="fill:#b69090;fill-opacity:1;fill-rule:nonzero;stroke:#000000;stroke-width:2;stroke-linecap:round;stroke-linejoin:round;stroke-miterlimit:4;stroke-opacity:1;stroke-dashoffset:0;stroke-dasharray:none" />
          <path
             style="fill:#b69090;fill-opacity:1;fill-rule:nonzero;stroke:#000000;stroke-width:2;stroke-linecap:round;stroke-linejoin:round;stroke-miterlimit:4;stroke-opacity:1;stroke-dashoffset:0;stroke-dasharray:none"
             d="m 143.03204,555.64108 c 0.0482,-29.90109 10.53078,-56.88279 29.70074,-80.11465 l -34.44737,-27.44908 c -23.58535,30.29881 -36.41316,65.53341 -36.47406,103.87099 -0.1519,95.67833 77.60416,173.36358 173.83273,173.69083 0,0 1.11114,0.15297 1.23943,33.68607 0,0 0.12829,0.20931 72.70794,-53.0273 -72.57964,-53.23661 -72.70792,-53.0273 -72.70792,-53.0273 -0.1283,33.53308 -0.99018,33.42418 -0.99018,33.42418 -73.45345,-0.2001 -132.97759,-58.83639 -132.86131,-131.05374 z"
             id="path4793"
             inkscape:connector-curvature="0"
             sodipodi:nodetypes="sccscccccs" />
        </g>
      </g>
    </g>
  </g>
</svg>
