<?xml version="1.0" encoding="UTF-8" standalone="no"?>
<!-- Generator: Adobe Illustrator 18.0.0, SVG Export Plug-In . SVG Version: 6.00 Build 0)  -->

<svg
   xmlns:dc="http://purl.org/dc/elements/1.1/"
   xmlns:cc="http://creativecommons.org/ns#"
   xmlns:rdf="http://www.w3.org/1999/02/22-rdf-syntax-ns#"
   xmlns:svg="http://www.w3.org/2000/svg"
   xmlns="http://www.w3.org/2000/svg"
   xmlns:sodipodi="http://sodipodi.sourceforge.net/DTD/sodipodi-0.dtd"
   xmlns:inkscape="http://www.inkscape.org/namespaces/inkscape"
   enable-background="new 0 0 18 18"
   xml:space="preserve"
   viewBox="0 0 16.21875 14.1875"
   height="100%"
   width="100%"
   version="1.1"
   y="0px"
   x="0px"
   id="svg2"
   inkscape:version="0.48.5 r10040"
   sodipodi:docname="book_opt.svg"><defs
     id="defs30" /><sodipodi:namedview
     pagecolor="#ffffff"
     bordercolor="#666666"
     borderopacity="1"
     objecttolerance="10"
     gridtolerance="10"
     guidetolerance="10"
     inkscape:pageopacity="0"
     inkscape:pageshadow="2"
     inkscape:window-width="640"
     inkscape:window-height="480"
     id="namedview28"
     showgrid="false"
     fit-margin-left="1"
     fit-margin-top="1"
     fit-margin-right="1"
     fit-margin-bottom="1"
     inkscape:zoom="19.305386"
     inkscape:cx="10.882667"
     inkscape:cy="7.6899429"
     inkscape:window-x="76"
     inkscape:window-y="167"
     inkscape:window-maximized="0"
     inkscape:current-layer="svg2" /><metadata
     id="metadata4"><rdf:RDF><cc:Work
         rdf:about=""><dc:format>image/svg+xml</dc:format><dc:type
           rdf:resource="http://purl.org/dc/dcmitype/StillImage" /><dc:title></dc:title></cc:Work></rdf:RDF></metadata><path
     style="fill:#ffccaa;stroke:#000000;stroke-width:0.57305324"
     inkscape:connector-curvature="0"
     id="path16"
     d="m 14.944055,2.42625 c 0,0.602 -0.305325,1.13 -0.653442,1.13 H 9.924692 c -0.349273,0 -0.653442,-0.527 -0.653442,-1.13 0,-0.602 0.305325,-1.13 0.653442,-1.13 h 4.365921 c 0.349273,0 0.653442,0.527 0.653442,1.13 z" /><path
     style="fill:#ffccaa;stroke:#000000;stroke-width:0.57305324"
     inkscape:connector-curvature="0"
     id="path18"
     d="m 14.944055,7.11625 c 0,0.602 -0.305325,1.13 -0.653442,1.13 H 9.924692 c -0.349273,0 -0.653442,-0.527 -0.653442,-1.13 0,-0.602 0.305325,-1.13 0.653442,-1.13 h 4.365921 c 0.349273,0 0.653442,0.527 0.653442,1.13 z" /><path
     style="fill:#ffccaa;stroke:#000000;stroke-width:0.57305324"
     inkscape:connector-curvature="0"
     id="path20"
     d="m 14.944055,11.75625 c 0,0.602 -0.305325,1.13 -0.653442,1.13 H 9.924692 c -0.349273,0 -0.653442,-0.527 -0.653442,-1.13 0,-0.602 0.305325,-1.13 0.653442,-1.13 h 4.365921 c 0.349273,0 0.653442,0.527 0.653442,1.13 z" /><path
     style="fill:#ffccaa;stroke:#000000;stroke-width:0.57305324"
     inkscape:connector-curvature="0"
     id="path22"
     d="m 14.944055,2.42625 c 0,0.602 -0.305325,1.13 -0.653442,1.13 H 9.924692 c -0.349273,0 -0.653442,-0.527 -0.653442,-1.13 0,-0.602 0.305325,-1.13 0.653442,-1.13 h 4.365921 c 0.349273,0 0.653442,0.527 0.653442,1.13 z" /><path
     style="fill:#ffccaa;stroke:#000000;stroke-width:0.57305324"
     inkscape:connector-curvature="0"
     id="path24"
     d="m 14.944055,7.11625 c 0,0.602 -0.305325,1.13 -0.653442,1.13 H 9.924692 c -0.349273,0 -0.653442,-0.527 -0.653442,-1.13 0,-0.602 0.305325,-1.13 0.653442,-1.13 h 4.365921 c 0.349273,0 0.653442,0.527 0.653442,1.13 z" /><path
     style="fill:#ffccaa;stroke:#000000;stroke-width:0.57305324"
     inkscape:connector-curvature="0"
     id="path26"
     d="m 14.944055,11.75625 c 0,0.602 -0.305325,1.13 -0.653442,1.13 H 9.924692 c -0.349273,0 -0.653442,-0.527 -0.653442,-1.13 0,-0.602 0.305325,-1.13 0.653442,-1.13 h 4.365921 c 0.349273,0 0.653442,0.527 0.653442,1.13 z" /><path
     d="m 6.944055,2.42625 c 0,0.602 -0.305325,1.13 -0.653442,1.13 H 1.924692 c -0.349273,0 -0.653442,-0.527 -0.653442,-1.13 0,-0.602 0.305325,-1.13 0.653442,-1.13 h 4.365921 c 0.349273,0 0.653442,0.527 0.653442,1.13 z"
     id="path3017"
     inkscape:connector-curvature="0"
     style="fill:#ffccaa;stroke:#000000;stroke-width:0.57305324" /><path
     d="m 6.944055,7.11625 c 0,0.602 -0.305325,1.13 -0.653442,1.13 H 1.924692 c -0.349273,0 -0.653442,-0.527 -0.653442,-1.13 0,-0.602 0.305325,-1.13 0.653442,-1.13 h 4.365921 c 0.349273,0 0.653442,0.527 0.653442,1.13 z"
     id="path3019"
     inkscape:connector-curvature="0"
     style="fill:#ffccaa;stroke:#000000;stroke-width:0.57305324" /><path
     d="m 6.944055,11.75625 c 0,0.602 -0.305325,1.13 -0.653442,1.13 H 1.924692 c -0.349273,0 -0.653442,-0.527 -0.653442,-1.13 0,-0.602 0.305325,-1.13 0.653442,-1.13 h 4.365921 c 0.349273,0 0.653442,0.527 0.653442,1.13 z"
     id="path3021"
     inkscape:connector-curvature="0"
     style="fill:#ffccaa;stroke:#000000;stroke-width:0.57305324" /><path
     d="m 6.944055,2.42625 c 0,0.602 -0.305325,1.13 -0.653442,1.13 H 1.924692 c -0.349273,0 -0.653442,-0.527 -0.653442,-1.13 0,-0.602 0.305325,-1.13 0.653442,-1.13 h 4.365921 c 0.349273,0 0.653442,0.527 0.653442,1.13 z"
     id="path3023"
     inkscape:connector-curvature="0"
     style="fill:#ffccaa;stroke:#000000;stroke-width:0.57305324" /><path
     d="m 6.944055,7.11625 c 0,0.602 -0.305325,1.13 -0.653442,1.13 H 1.924692 c -0.349273,0 -0.653442,-0.527 -0.653442,-1.13 0,-0.602 0.305325,-1.13 0.653442,-1.13 h 4.365921 c 0.349273,0 0.653442,0.527 0.653442,1.13 z"
     id="path3025"
     inkscape:connector-curvature="0"
     style="fill:#ffccaa;stroke:#000000;stroke-width:0.57305324" /><path
     d="m 6.944055,11.75625 c 0,0.602 -0.305325,1.13 -0.653442,1.13 H 1.924692 c -0.349273,0 -0.653442,-0.527 -0.653442,-1.13 0,-0.602 0.305325,-1.13 0.653442,-1.13 h 4.365921 c 0.349273,0 0.653442,0.527 0.653442,1.13 z"
     id="path3027"
     inkscape:connector-curvature="0"
     style="fill:#ffccaa;stroke:#000000;stroke-width:0.57305324" /></svg>