<!-- Generator: Adobe Illustrator 18.0.0, SVG Export Plug-In . SVG Version: 6.00 Build 0)  -->
<svg xmlns:rdf="http://www.w3.org/1999/02/22-rdf-syntax-ns#" xmlns="http://www.w3.org/2000/svg" enable-background="new 0 0 18 18" xml:space="preserve" viewBox="0 0 22.5625 12.40625" height="100%" width="100%" version="1.1" y="0px" x="0px" xmlns:cc="http://creativecommons.org/ns#" xmlns:dc="http://purl.org/dc/elements/1.1/"><metadata><rdf:RDF><cc:Work rdf:about=""><dc:format>image/svg+xml</dc:format><dc:type rdf:resource="http://purl.org/dc/dcmitype/StillImage"/><dc:title/></cc:Work></rdf:RDF></metadata><g stroke="#000" transform="translate(-7.625,-2.25)"><path d="m17.8,3.77c0,0.602-0.528,1.13-1.13,1.13h-7.56c-0.604,0-1.13-0.527-1.13-1.13,0-0.602,0.528-1.13,1.13-1.13h7.55c0.604,0,1.13,0.527,1.13,1.13z" stroke-width="0.75358206" fill="none"/><rect stroke-linejoin="round" height="11.5" width="0.156" y="2.71" x="18.8" stroke-width="0.31" fill="#000"/><path d="m17.8,8.46c0,0.602-0.528,1.13-1.13,1.13h-7.56c-0.604,0-1.13-0.527-1.13-1.13,0-0.602,0.528-1.13,1.13-1.13h7.55c0.604,0,1.13,0.527,1.13,1.13z" stroke-width="0.75358206" fill="none"/><path d="m17.8,13.1c0,0.602-0.528,1.13-1.13,1.13h-7.56c-0.604,0-1.13-0.527-1.13-1.13,0-0.602,0.528-1.13,1.13-1.13h7.55c0.604,0,1.13,0.527,1.13,1.13z" stroke-width="0.75358206" fill="none"/><path d="m29.8,3.77c0,0.602-0.528,1.13-1.13,1.13h-7.55c-0.604,0-1.13-0.527-1.13-1.13,0-0.602,0.528-1.13,1.13-1.13h7.55c0.604,0,1.13,0.527,1.13,1.13z" stroke-width="0.75358206" fill="none"/><path d="m29.8,8.46c0,0.602-0.528,1.13-1.13,1.13h-7.55c-0.604,0-1.13-0.527-1.13-1.13,0-0.602,0.528-1.13,1.13-1.13h7.55c0.604,0,1.13,0.527,1.13,1.13z" stroke-width="0.75358206" fill="none"/><path d="m29.8,13.1c0,0.602-0.528,1.13-1.13,1.13h-7.55c-0.604,0-1.13-0.527-1.13-1.13,0-0.602,0.528-1.13,1.13-1.13h7.55c0.604,0,1.13,0.527,1.13,1.13z" stroke-width="0.75358206" fill="none"/><path d="m29.8,3.77c0,0.602-0.528,1.13-1.13,1.13h-7.55c-0.604,0-1.13-0.527-1.13-1.13,0-0.602,0.528-1.13,1.13-1.13h7.55c0.604,0,1.13,0.527,1.13,1.13z" stroke-width="0.75358206" fill="none"/><path d="m29.8,8.46c0,0.602-0.528,1.13-1.13,1.13h-7.55c-0.604,0-1.13-0.527-1.13-1.13,0-0.602,0.528-1.13,1.13-1.13h7.55c0.604,0,1.13,0.527,1.13,1.13z" stroke-width="0.75358206" fill="none"/><path d="m29.8,13.1c0,0.602-0.528,1.13-1.13,1.13h-7.55c-0.604,0-1.13-0.527-1.13-1.13,0-0.602,0.528-1.13,1.13-1.13h7.55c0.604,0,1.13,0.527,1.13,1.13z" stroke-width="0.75358206" fill="none"/></g></svg>
