<?xml version="1.0" encoding="UTF-8" standalone="no"?>
<!-- Generator: Adobe Illustrator 18.0.0, SVG Export Plug-In . SVG Version: 6.00 Build 0)  -->
<svg xmlns:rdf="http://www.w3.org/1999/02/22-rdf-syntax-ns#" xmlns="http://www.w3.org/2000/svg" version="1.1" xml:space="preserve" height="100%" width="100%" enable-background="new 0 0 18 18" y="0px" x="0px" xmlns:cc="http://creativecommons.org/ns#" xmlns:dc="http://purl.org/dc/elements/1.1/" viewBox="0 0 16.21875 14.1875"><metadata><rdf:RDF><cc:Work rdf:about=""><dc:format>image/svg+xml</dc:format><dc:type rdf:resource="http://purl.org/dc/dcmitype/StillImage"/><dc:title/></cc:Work></rdf:RDF></metadata><path d="m14.9,2.43c0,0.602-0.305,1.13-0.653,1.13h-4.28c-0.349,0-0.653-0.527-0.653-1.13,0-0.602,0.305-1.13,0.653-1.13h4.37c0.349,0,0.653,0.527,0.653,1.13z" stroke="#000" stroke-width="0.57305324" fill="#FCA"/><path d="m14.9,7.12c0,0.602-0.305,1.13-0.653,1.13h-4.28c-0.349,0-0.653-0.527-0.653-1.13,0-0.602,0.305-1.13,0.653-1.13h4.37c0.349,0,0.653,0.527,0.653,1.13z" stroke="#000" stroke-width="0.57305324" fill="#FCA"/><path d="m14.9,11.8c0,0.602-0.305,1.13-0.653,1.13h-4.28c-0.349,0-0.653-0.527-0.653-1.13,0-0.602,0.305-1.13,0.653-1.13h4.37c0.349,0,0.653,0.527,0.653,1.13z" stroke="#000" stroke-width="0.57305324" fill="#FCA"/><path d="m14.9,2.43c0,0.602-0.305,1.13-0.653,1.13h-4.28c-0.349,0-0.653-0.527-0.653-1.13,0-0.602,0.305-1.13,0.653-1.13h4.37c0.349,0,0.653,0.527,0.653,1.13z" stroke="#000" stroke-width="0.57305324" fill="#FCA"/><path d="m14.9,7.12c0,0.602-0.305,1.13-0.653,1.13h-4.28c-0.349,0-0.653-0.527-0.653-1.13,0-0.602,0.305-1.13,0.653-1.13h4.37c0.349,0,0.653,0.527,0.653,1.13z" stroke="#000" stroke-width="0.57305324" fill="#FCA"/><path d="m14.9,11.8c0,0.602-0.305,1.13-0.653,1.13h-4.28c-0.349,0-0.653-0.527-0.653-1.13,0-0.602,0.305-1.13,0.653-1.13h4.37c0.349,0,0.653,0.527,0.653,1.13z" stroke="#000" stroke-width="0.57305324" fill="#FCA"/><path d="m6.94,2.43c0,0.602-0.305,1.13-0.653,1.13h-4.37c-0.349,0-0.653-0.527-0.653-1.13,0-0.602,0.305-1.13,0.653-1.13h4.37c0.349,0,0.653,0.527,0.653,1.13z" stroke="#000" stroke-width="0.57305324" fill="#FCA"/><path d="m6.94,7.12c0,0.602-0.305,1.13-0.653,1.13h-4.37c-0.349,0-0.653-0.527-0.653-1.13,0-0.602,0.305-1.13,0.653-1.13h4.37c0.349,0,0.653,0.527,0.653,1.13z" stroke="#000" stroke-width="0.57305324" fill="#FCA"/><path d="m6.94,11.8c0,0.602-0.305,1.13-0.653,1.13h-4.37c-0.349,0-0.653-0.527-0.653-1.13,0-0.602,0.305-1.13,0.653-1.13h4.37c0.349,0,0.653,0.527,0.653,1.13z" stroke="#000" stroke-width="0.57305324" fill="#FCA"/><path d="m6.94,2.43c0,0.602-0.305,1.13-0.653,1.13h-4.37c-0.349,0-0.653-0.527-0.653-1.13,0-0.602,0.305-1.13,0.653-1.13h4.37c0.349,0,0.653,0.527,0.653,1.13z" stroke="#000" stroke-width="0.57305324" fill="#FCA"/><path d="m6.94,7.12c0,0.602-0.305,1.13-0.653,1.13h-4.37c-0.349,0-0.653-0.527-0.653-1.13,0-0.602,0.305-1.13,0.653-1.13h4.37c0.349,0,0.653,0.527,0.653,1.13z" stroke="#000" stroke-width="0.57305324" fill="#FCA"/><path d="m6.94,11.8c0,0.602-0.305,1.13-0.653,1.13h-4.37c-0.349,0-0.653-0.527-0.653-1.13,0-0.602,0.305-1.13,0.653-1.13h4.37c0.349,0,0.653,0.527,0.653,1.13z" stroke="#000" stroke-width="0.57305324" fill="#FCA"/></svg>
